<svg xmlns="http://www.w3.org/2000/svg" viewBox="0 0 32 32">
  <defs>
    <linearGradient id="g" x1="0%" y1="0%" x2="100%" y2="100%">
      <stop offset="0%" stop-color="#fde68a"/>
      <stop offset="100%" stop-color="#d97706"/>
    </linearGradient>
  </defs>
  <rect width="32" height="32" rx="8" fill="#0c0a09"/>
  <path d="M8 13.5C8 9.36 11.36 6 15.5 6h1C20.64 6 24 9.36 24 13.5V18a2 2 0 0 1-2 2h-1.5a1.5 1.5 0 0 1-1.5-1.5v-3A1.5 1.5 0 0 1 20.5 14H22v-.5C22 10.46 19.54 8 16.5 8h-1C12.46 8 10 10.46 10 13.5V14h1.5A1.5 1.5 0 0 1 13 15.5v3A1.5 1.5 0 0 1 11.5 20H10a2 2 0 0 1-2-2v-4.5z" fill="url(#g)"/>
  <path d="M20 20v1.5a2.5 2.5 0 0 1-2.5 2.5H16" stroke="url(#g)" stroke-width="1.5" fill="none" stroke-linecap="round"/>
</svg>
